<?xml version="1.0" encoding="UTF-8" standalone="no"?>
<svg
   xmlns:dc="http://purl.org/dc/elements/1.1/"
   xmlns:cc="http://creativecommons.org/ns#"
   xmlns:rdf="http://www.w3.org/1999/02/22-rdf-syntax-ns#"
   xmlns:svg="http://www.w3.org/2000/svg"
   xmlns="http://www.w3.org/2000/svg"
   id="SVGRoot"
   version="1.1"
   viewBox="0 0 240 240"
   height="240px"
   width="240px">
  <defs
     id="defs177" />
  <metadata
     id="metadata180">
    <rdf:RDF>
      <cc:Work
         rdf:about="">
        <dc:format>image/svg+xml</dc:format>
        <dc:type
           rdf:resource="http://purl.org/dc/dcmitype/StillImage" />
        <dc:title></dc:title>
      </cc:Work>
    </rdf:RDF>
  </metadata>
  <g
     id="layer1">
    <path
       d="m 103.18391,178.43889 c 0.0215,-0.28913 0.0351,-0.48977 0.0278,-0.52836 -0.16638,-0.90515 -0.0944,-1.57301 -0.22156,-2.41198 -0.12573,-0.83057 -0.0956,-1.51815 -0.29789,-2.34774 -0.16289,-0.66785 -0.0898,-0.91536 -0.10449,-1.25359 l 6.19646,-4.2188 c -0.89305,-3.78534 -2.24431,-7.49254 -4.07001,-11.05113 l -8.340388,0.8906 c -0.843886,-1.29434 -2.347448,-3.33909 -3.411896,-4.37741 l 3.782076,-7.82875 c -2.754507,-2.92401 -5.786619,-5.44976 -9.0414,-7.55978 l -7.162038,5.22728 -1.941817,1.29832 c -0.509834,-0.20637 -0.600942,-0.0585 -1.067192,-0.26865 -0.688893,-0.31061 -2.438318,-0.58992 -3.319196,-0.77128 l -4.174638,-0.34965 c -0.658493,-0.0194 -0.908904,-0.11312 -1.601827,0.0343 -0.65634,0.13965 -0.620599,0.002 -1.132648,-0.0426 -0.234456,-0.0206 -0.280154,0.0167 -0.538923,0.0596 -0.02492,0.004 -0.0545,0.009 -0.07922,0.0129 l -1.79694,0.19986 c -0.376295,0.0855 -0.785768,0.21408 -1.210044,0.30543 -1.316423,0.28339 0.01281,-0.31217 -2.428619,0.60031 -1.408006,0.52618 -1.090951,-0.0663 -3.779847,1.27939 l -2.682135,1.39985 c -1.573434,0.93386 -4.906201,3.16307 -6.022518,4.46458 -0.316668,0.36913 -0.452461,0.6977 -0.741788,0.9705 -1.386751,1.30605 -0.799112,0.55885 -1.685649,1.96611 -0.283956,0.45024 -0.353669,0.54217 -0.787307,0.97288 -0.369306,0.36659 -0.343473,0.61513 -0.555423,0.99929 -0.199242,0.36087 -0.534733,0.64849 -0.729319,0.98049 l -0.956994,2.1179 c -0.09819,0.38945 -0.23953,0.64221 -0.355784,1.05542 -0.338053,1.20283 -0.907028,2.33232 -1.065903,3.85961 -0.09984,0.9597 -0.42105,1.87824 -0.375153,2.87539 0.03077,0.65536 -0.08538,0.62979 -0.09918,1.12189 l 0.0686,2.29005 c 0.08568,0.43798 0.211572,0.83663 0.161893,1.26182 -0.09293,0.79199 0.516218,1.59015 0.554808,2.40855 l 0.245455,1.2026 c 0.336405,1.1896 1.108791,2.71034 1.643763,3.85131 0.486594,1.03785 1.133452,1.74272 1.728865,2.459 0.581612,0.69949 1.250014,1.54665 1.844235,2.21471 0.45393,0.51001 2.400373,1.92147 2.984914,2.16251 0.285624,0.11791 0.726312,0.4326 0.995704,0.61803 l 2.136074,0.96848 c 0.890051,0.16783 0.263068,-0.005 1.044866,0.45788 0.36453,0.2157 0.667379,0.0407 1.090345,0.17159 0.536233,0.16573 0.554371,0.14463 1.089829,0.20509 0.285216,0.0319 0.333119,0.0813 0.578773,0.1409 0.568825,0.13767 1.149714,0.022 1.728845,0.0703 0.588601,0.0491 1.097205,-0.13392 1.697393,-0.10859 1.053244,0.0445 2.234271,-0.69856 3.192238,-0.92587 0.488986,-0.11585 0.760869,-0.1704 1.320799,-0.42561 2.305226,-1.0493 2.7532,-1.9162 4.300255,-3.577 0.597964,-0.64166 1.667908,-3.39089 1.610723,-4.33838 -0.06383,-1.06786 0.350255,-0.4146 -0.05322,-2.363 -0.09302,-0.44866 0.0099,-0.77498 -0.141571,-1.1631 -0.331084,-0.85095 -1.052391,-1.97988 -1.769638,-2.41756 -0.02075,-0.0128 -0.04656,-0.0268 -0.06761,-0.0408 -0.256853,-0.17036 -0.78968,-0.804 -1.379652,-0.89553 l -0.440617,-0.0872 c -2.08311,-0.51664 -2.954238,1.31097 -3.400028,1.58356 -0.191359,0.53892 -0.617988,0.91137 -1.123643,1.18773 -1.541447,0.84254 -2.01152,0.36815 -2.701545,0.25327 -0.658147,-0.10944 -0.851303,-0.51358 -1.511117,-0.79948 l -0.561578,-0.3663 c -0.489234,-0.49687 -0.88888,-1.17964 -1.212508,-1.78785 -0.504016,-0.94756 -0.553367,-1.88995 -0.655208,-2.79318 -0.07972,-0.7045 0.126759,-1.95977 0.315765,-2.52353 0.150487,-0.44878 0.159402,-0.8095 0.353491,-1.2127 0.199292,-0.41382 0.474095,-0.69011 0.606363,-1.1458 0.163184,-0.56345 0.263892,-0.62984 0.729528,-1.12017 0.377576,-0.39727 0.479227,-0.68233 0.810122,-1.11652 0.851828,-1.11708 4.146452,-3.23768 5.523861,-3.29829 0.951991,-0.042 1.703906,-0.6985 2.729144,-0.62517 0.623617,0.0447 0.784597,-0.11062 1.336903,-0.12248 0.418518,-0.009 0.814173,0.11395 1.241388,0.0928 0.633098,-0.031 1.93304,0.11756 2.533833,0.3002 0.737638,0.22439 1.82711,0.37943 2.438049,0.69951 0.508524,0.26613 0.654573,0.3751 1.163255,0.55142 0.548713,0.19042 0.684366,0.45491 1.140363,0.68462 0.479167,0.24151 0.630229,0.0892 1.168199,0.56504 0.409642,0.36195 0.671181,0.65843 1.079752,0.83823 0.926804,0.40783 1.328881,1.14377 2.156357,2.03745 0.645399,0.69706 1.484024,1.51715 2.060332,2.36414 0.817267,1.20039 1.994402,3.42239 2.285796,4.84581 0.09709,0.47474 0.637762,1.32038 0.725788,2.36037 0.09342,1.10538 0.49874,1.25598 0.459813,2.70499 -0.006,0.23625 0.0052,0.12399 0.02614,0.38065 l 0.06039,0.76102 c 0.003,0.025 0.0099,0.0546 0.01273,0.0801 0.003,0.026 0.008,0.056 0.0099,0.0818 0.0089,0.1467 0.0089,0.11968 -0.0052,0.24235 -0.003,0.0229 -0.01042,0.0533 -0.014,0.0754 -0.06232,0.38373 0.02077,0.58866 0.117593,1.03361 0.139774,0.64302 -0.136617,0.67071 -0.131085,1.24379 0.008,0.82146 0.03671,1.78603 -0.162551,2.54763 l -0.601248,2.45241 c -0.09223,0.41457 -0.667501,2.04416 -0.848912,2.3751 -0.26211,0.4783 -0.143959,0.74219 -0.456418,1.1839 -0.502105,0.70993 -0.226593,0.53704 -0.486841,1.19179 -0.177302,0.44594 -0.540944,0.63014 -0.738416,1.12188 -0.340247,0.84786 -1.091762,1.50449 -1.466895,2.25781 -0.191101,0.38343 -2.491392,3.05427 -2.727328,3.25141 -1.715114,1.43299 -3.120777,2.78648 -5.08233,4.00016 -1.275489,0.78889 -4.478856,2.24879 -5.87073,2.83024 -0.989846,0.4134 -1.301927,0.14302 -2.689115,0.63362 -0.744429,0.26319 -0.706227,0.25064 -1.35245,0.2613 -0.608993,0.01 -1.383365,0.41475 -2.070243,0.37893 -1.383196,-0.0716 -1.313304,0.20422 -1.942015,0.18157 -0.653579,-0.0237 -0.37141,-0.17662 -1.301758,0.002 -1.036616,0.19935 -0.586477,0.0661 -1.286788,-0.0217 -0.594747,-0.0745 -0.539578,0.15783 -1.28231,-0.0243 -0.545565,-0.13421 -0.739574,0.0287 -1.283044,-0.0596 l -4.379787,-0.76738 -5.042529,-1.79435 c -0.670854,-0.36648 -0.632275,-0.0595 -1.44462,-0.68984 -0.732436,-0.56868 -0.700549,-0.20035 -1.182098,-0.47615 -0.552505,-0.31675 -0.412314,-0.37596 -1.145793,-0.64927 -0.410516,-0.15261 -0.690004,-0.44846 -1.094643,-0.79797 -0.406466,-0.35044 -0.766381,-0.33653 -1.156505,-0.59138 -0.351594,-0.22966 -0.693648,-0.69052 -1.080665,-1.0017 -0.364729,-0.29318 -0.772367,-0.43467 -1.123892,-0.69642 -0.332135,-0.24723 -0.688992,-0.69664 -1.039594,-1.0376 -0.794773,-0.77323 -1.447429,-1.11908 -2.142676,-1.96978 -0.677932,-0.82995 -1.315707,-1.75337 -1.99077,-2.5406 -1.863328,-2.17211 -2.363184,-2.69741 -3.753936,-5.40321 -0.347326,-0.67535 -0.162211,-0.72848 -0.410268,-1.3287 -0.568766,-1.37573 -1.688557,-2.91965 -1.903326,-4.34235 -0.149216,-0.98602 -0.741134,-1.91889 -0.942083,-2.82143 -0.113486,-0.50964 0.01638,-0.75217 -0.127365,-1.30585 -0.133559,-0.51291 -0.336345,-0.95944 -0.418935,-1.4007 l -0.283678,-2.62747 c 0.02095,-0.66134 0.05103,-0.58132 -0.09511,-1.31026 -0.142346,-0.70859 0.03693,-0.80135 0.0079,-1.29874 -0.03256,-0.55615 -0.256873,-0.85382 -0.181789,-1.34279 l 0.003,-1.30213 c -0.05133,-0.63716 0.146157,-0.60768 0.12658,-1.25915 -0.02909,-0.97956 0.255403,-2.81102 0.407368,-3.7774 l 0.438831,-2.48978 c 0.03951,-0.40409 0.251661,-0.79025 0.289695,-1.22488 0.04179,-0.4754 0.211035,-0.67867 0.343264,-1.20678 0.130026,-0.52039 0.19947,-0.66863 0.376157,-1.20107 0.1884,-0.56693 0.02502,-0.55111 0.382906,-1.19257 0.105196,-0.18871 0.09491,-0.13541 0.177153,-0.35344 l 0.04547,-0.14373 c 0.0089,-0.0293 0.02899,-0.11197 0.03762,-0.14098 0.259494,-0.91072 0.445661,-0.78785 0.665374,-1.74845 0.02809,-0.12286 0.916707,-2.03086 1.298383,-2.39023 0.176091,-0.10377 0.397997,-0.43284 0.496829,-0.69307 l 1.318428,-2.3653 c 1.118292,-1.33306 0.592126,-0.6494 1.020105,-1.57999 0.17752,-0.38544 0.365812,-0.41284 0.644992,-0.77452 0.149811,-0.19395 0.336852,-0.46002 0.50775,-0.71043 1.069645,-1.5665 0.293427,-0.4463 1.280255,-1.54333 1.369386,-1.5223 -0.04488,-0.52732 2.594591,-2.95485 0.461942,-0.42494 0.634955,-0.93162 1.252189,-1.45882 1.00718,-0.86032 2.668574,-2.00137 3.814297,-2.73986 1.336655,-0.86115 2.577605,-1.76646 4.026881,-2.65119 1.280205,-0.78201 2.782129,-1.61235 4.129049,-2.28114 1.600527,-0.79483 1.348618,-0.40282 1.940576,-0.67712 0.553149,-0.25635 0.557835,-0.20158 1.021465,-0.36672 l 2.757071,-1.01325 c 1.435397,-0.32696 2.836067,-0.93246 3.05713,-0.97442 0.386839,-0.0738 0.487904,-0.0101 0.921592,-0.0563 0.325405,-0.0352 0.550817,-0.009 0.913928,-0.14243 1.316977,-0.48428 0.804055,-0.14826 1.825909,-0.23248 l 2.813559,-0.55121 c 0.384347,-0.0657 0.505804,-0.13501 0.921702,-0.0647 0.746345,0.12613 2.964702,-0.24723 4.034784,-0.027 0.726092,0.14959 0.843171,-0.13462 1.386274,-0.0626 0.234526,0.0313 0.485849,0.18814 0.782513,0.20941 l 4.359762,0.55689 c 0.36592,0.0674 0.53647,0.007 0.89704,0.069 0.384942,0.0661 0.486772,0.18325 0.856962,0.22759 l 1.674171,0.35206 c 1.125152,0.3469 0.885732,0.14939 1.308361,0.24785 0.432655,0.10099 0.03892,0.007 0.417058,0.20096 0.443844,0.22845 0.761277,0.0926 1.638967,0.44228 0.332712,0.13229 0.567875,0.18153 0.849233,0.2824 l 4.11201,1.60826 c 0.498011,0.25805 1.747943,0.71694 2.401446,1.15267 1.086533,0.72474 1.156383,0.54806 1.562109,0.82284 1.130203,0.76663 0.434765,0.40478 1.602904,0.91658 0.559052,0.245 0.916931,0.66677 1.538766,0.90333 0.535374,0.2039 0.349585,0.28019 0.783508,0.61199 0.654344,0.50016 1.426869,0.81911 1.591669,0.94201 l 2.24319,1.86328 c 0.77453,0.75983 1.3423,1.39254 2.19524,2.05894 1.33155,1.04007 1.30877,1.50219 2.15049,2.20872 0.58909,0.49449 0.91227,0.7755 1.49681,1.40763 0.52001,0.56206 0.82191,1.08232 1.3457,1.74756 1.21378,1.54145 1.43498,1.99221 2.74016,3.51409 0.47067,0.54876 2.24395,3.46527 2.55081,4.1453 l 2.89417,6.06361 c 0.27879,0.68956 0.32952,1.24895 0.53553,1.8711 0.35869,1.08213 0.76371,1.64272 0.98897,2.96403 0.27576,1.6143 0.74678,1.54726 0.72257,2.8254 -0.009,0.48101 0.25655,1.28973 0.44437,1.84049 0.35404,1.0369 -0.21278,0.76287 0.24002,1.87153 0.47948,1.1733 0.44253,0.81667 0.43552,1.86901 -0.003,0.44493 0.10303,0.49172 0.23431,0.96497 0.31478,1.13313 0.318,0.77153 0.34145,1.81764 0.004,0.20459 0.16908,0.71721 0.0705,0.83955 -0.0312,0.039 -0.0114,0.0699 -0.022,0.10348 0.42623,0.36733 0.48305,0.89334 0.63073,1.26947 0.11892,0.30302 0.20669,0.38142 0.2786,0.68439 l 0.21288,0.96273 c 0.007,0.0259 0.0126,0.0544 0.0185,0.0798 0.19124,0.86038 0.5089,1.33082 0.8844,2.32228 0.3774,0.99715 0.24442,1.00376 0.95497,2.66045 l 2.20527,4.23839 c 0.27427,0.47702 0.3817,0.90382 0.61481,1.3486 1.02933,1.96229 4.30644,6.73987 5.57936,8.3626 0.99238,1.26533 1.58826,2.40956 2.83569,3.53361 0.71716,0.64639 0.75342,0.44348 1.08789,0.78071 0.26756,0.26975 0.64736,0.84204 0.94739,1.17711 l 2.07443,1.935 c 0.51432,0.44136 -0.43466,-0.3442 0.12741,0.10177 0.63336,0.50227 0.41929,0.46781 0.90906,0.98064 0.50405,0.52853 0.53938,0.2733 1.2515,0.83762 0.52231,0.41406 0.34736,0.32219 0.79374,0.80933 0.51833,0.56539 0.52153,0.19444 1.56578,1.15439 0.13524,0.12425 0.14378,0.13269 0.25441,0.22292 0.0209,0.0164 0.044,0.0345 0.0646,0.0506 0.0199,0.016 0.0442,0.0325 0.0641,0.0482 0.0196,0.0151 0.0442,0.0315 0.0635,0.0468 l 0.63454,0.5532 c 0.2274,0.1405 0.30242,0.0898 0.55755,0.21883 0.41994,0.21268 0.72062,0.59194 1.08986,0.86071 0.36568,0.26604 0.69244,0.33295 1.08188,0.5909 0.34124,0.22606 0.73461,0.67132 0.99961,0.92455 0.65056,0.0512 0.33709,-0.0503 0.95092,0.27281 l 1.64117,0.72323 c 0.30531,0.17236 0.51409,0.41147 0.85606,0.61027 0.39116,0.22739 0.37476,0.0613 0.83431,0.33874 1.45574,0.878 0.88209,0.32744 1.63763,0.78077 0.20676,0.12434 0.65338,0.40107 0.86925,0.48704 0.36609,0.14641 0.45618,0.0546 0.84477,0.29984 0.67919,0.42886 1.81993,0.79271 2.57351,1.04724 0.33545,0.1134 0.50042,0.27574 0.8214,0.4276 0.39714,0.18784 0.5509,0.10759 0.92767,0.27837 0.40309,0.18228 0.35918,0.28771 0.85052,0.23963 0.6539,-0.0641 0.36654,0.0278 0.91534,0.27255 0.31322,0.1398 0.54303,0.0583 0.86735,0.17736 0.36102,0.13248 0.41166,0.21178 0.8563,0.30023 1.31621,0.26237 0.89367,0.30657 1.78199,0.50466 0.60639,0.13487 1.07464,0.20532 1.73332,0.3931 1.00653,0.28687 2.5253,0.46909 3.58238,0.6469 0.63221,0.10617 0.96063,0.0208 1.33328,0.12153 0.82039,0.22151 0.73524,0.098 1.38608,0.25449 l 2.30722,0.19096 c 0.46333,0.0433 0.37092,0.0428 0.58076,0.22925 0.12397,0.0658 0.35167,0.0464 0.56908,0.0793 0.26125,0.0397 0.48907,0.10638 0.67584,0.13256 0.6758,-0.39721 0.47989,-0.12903 1.04949,-0.0976 0.009,4.9e-4 0.51314,-0.03 0.53283,-0.0322 0.19186,-0.0187 0.3563,-0.0608 0.55386,-0.0814 0.45115,-0.0471 0.77071,0.0498 1.60949,-0.0428 l 0.62566,0.0322 c 0.87478,0.1743 0.88158,-0.21285 1.99207,-0.15034 l 1.0522,-0.0197 c 0.53289,-0.076 0.5214,-0.278 1.15148,-0.27289 0.87713,0.008 1.2402,-0.1667 2.10583,-0.28134 l 1.0937,-0.10339 c 0.29627,-0.0471 0.80836,-0.26146 1.14393,-0.34694 0.8024,-0.20472 1.43679,-0.10122 2.19424,-0.37589 2.29536,-0.8328 0.90135,-0.30115 2.29953,-0.6156 0.59003,-0.13257 1.64086,-0.6058 2.22968,-0.82177 0.55165,-0.20217 0.63288,-0.16019 1.12972,-0.25356 1.23625,-0.23162 2.4259,-1.14082 3.55028,-1.53027 4.24735,-1.47029 10.48278,-5.44825 13.83458,-8.49896 0.96002,-0.87369 1.94751,-1.63448 2.83625,-2.52396 0.39628,-0.39674 0.39157,-0.59515 0.69121,-0.90259 0.53482,-0.54887 1.43477,-1.16477 1.75795,-1.70111 0.41236,-0.68537 0.55415,-1.10176 1.25324,-1.7371 0.85568,-0.77788 0.68419,-1.11015 1.35017,-1.82401 0.41908,-0.44907 0.8569,-0.77404 1.04064,-1.37795 0.0503,-0.16536 0.0533,-0.31984 0.15072,-0.46767 0.36883,-0.56047 0.46331,-0.30587 0.98549,-1.3783 0.0812,-0.16723 0.14143,-0.33234 0.23242,-0.46673 0.33025,-0.48682 0.6922,-0.76831 0.92845,-1.32736 0.57816,-1.36802 0.3952,-0.65319 0.91266,-1.53035 l 0.41225,-0.82583 c 0.61891,-1.05306 0.37453,-1.02757 0.95039,-1.90201 0.48008,-0.72905 0.95825,-2.43889 1.36622,-3.33898 0.086,-0.18965 0.14197,-0.29669 0.20604,-0.48816 l 1.73075,-4.92886 0.45494,-2.47206 c 0.0136,-0.0366 0.0777,-0.19224 0.0828,-0.21129 0.0495,-0.17795 0.0325,-0.11716 0.0413,-0.30442 0.0387,-0.81541 0.80066,-3.38855 0.83196,-4.27982 l 0.13723,-0.79878 c 0.0252,-0.95095 -0.0363,-2.20246 0.10184,-3.10468 0.0595,-0.38761 0.071,-0.62036 0.0248,-1.04254 -0.0692,-0.63672 0.0106,-0.56967 0.0433,-1.06442 0.0257,-0.38672 -0.19188,-0.73002 -0.16748,-1.11381 0.0266,-0.41855 0.21519,-0.45381 0.12402,-1.01042 -0.0803,-0.48833 -0.24673,-0.69066 -0.18474,-1.13318 0.15206,-1.0866 -0.30222,-1.49258 -0.22673,-2.10684 0.143,-1.16117 -0.15211,-1.1518 -0.26381,-2.17011 -0.0455,-0.41565 0.0461,-0.69369 -0.008,-1.05391 -0.0536,-0.35833 -0.29567,-0.76973 -0.40504,-1.16079 -0.17265,-0.61735 -0.13079,-0.61065 -0.14547,-1.10714 l -1.34577,-4.48035 c -0.77375,-1.69702 -1.00036,-2.98332 -1.8134,-4.67041 -0.86317,-1.79166 -3.22059,-5.90613 -4.34367,-7.26776 -0.30128,-0.36513 -0.46301,-0.51387 -0.78935,-1.02316 l -1.62983,-2.19324 c -0.15413,-0.17315 -0.2576,-0.30049 -0.42936,-0.45197 -1.9955,-1.76261 -1.2697,-1.8388 -3.83529,-3.84037 -0.58325,-0.45536 -1.19175,-1.17704 -1.76054,-1.51627 -0.46784,-0.27907 -0.4284,-0.0927 -0.91344,-0.6063 -1.01238,-1.07201 -1.60207,-1.26698 -2.64953,-2.12202 -0.60475,-0.49345 -1.25659,-0.62168 -1.86063,-1.11485 -0.58596,-0.4789 -0.53134,-0.25073 -0.90495,-0.43631 l 0.63035,-6.74088 c -3.32096,-1.98185 -6.82643,-3.55934 -10.43979,-4.69411 l -4.28091,6.32721 c -1.11727,-0.17483 -2.92277,-0.55529 -3.59484,-0.47957 -0.61903,0.07 -0.58627,-0.11333 -1.06757,-0.0652 -0.23204,0.0232 -0.44942,0.0226 -0.66101,0.0112 l -3.36782,-7.93487 c -3.65206,-0.0682 -7.30344,0.32627 -10.89747,1.19856 l -0.52053,8.55625 c -1.12644,0.37592 -2.24085,0.80099 -3.33797,1.29422 -0.37837,0.17169 -0.74231,0.35552 -1.11252,0.54521 l -6.78084,-5.56827 c -3.1397,1.90233 -5.96785,4.16545 -8.43627,6.74061 l 3.58602,7.78224 c -0.34419,0.32032 -0.66284,0.65553 -0.84762,0.99485 -0.31151,0.57199 -1.31654,1.36578 -1.43666,1.81381 -0.16697,0.62299 0.12054,0.1467 -0.44885,0.84995 -0.15659,0.19329 -0.28111,0.35497 -0.3848,0.49795 l -7.84148,-1.42533 c -1.65658,3.3021 -2.89791,6.83919 -3.71303,10.51166 l 5.91125,4.55416 c -0.043,0.2707 -0.0768,0.54466 -0.0937,0.82598 l -0.19853,1.00436 c -0.0708,0.2367 -0.0837,0.29626 -0.10216,0.51853 -0.088,1.05088 -0.23345,2.04823 -0.23079,3.13877 l 0.0271,0.83787 -6.35262,2.47895 c 0.22482,3.80013 0.88699,7.63601 2.01235,11.44593 l 8.304,1.22875 c 0.45054,1.19795 0.95208,2.39731 1.51494,3.58043 0.19097,0.407 0.4036,0.80223 0.60958,1.1952 l -4.84455,6.63062 c 2.08704,3.4321 4.49479,6.55432 7.17482,9.33618 l 15.64276,-6.27824 c 0.0701,-0.009 0.0651,0.016 0.52708,0.16803 0.43329,0.14269 0.73979,-0.008 1.06451,0.0517 0.12477,0.0227 0.25773,0.12992 0.4948,0.15376 0.37012,0.037 0.3023,-0.0595 0.56368,-0.0675 0.22583,-0.007 0.66986,0.19494 0.9924,0.22346 0.37457,0.0331 0.686,-0.0637 1.09398,-0.0896 0.39587,-0.0256 0.63302,0.11229 1.05008,0.0477 0.59008,-0.0911 0.47333,-0.18623 1.09895,-0.16348 0.7621,0.0278 1.34159,-0.18234 2.15412,-0.38971 0.76872,-0.19599 1.34681,0.0221 2.1569,-0.31827 1.9838,-0.83379 2.63149,-0.67075 4.67832,-1.88629 4.4581,-2.64822 3.1836,-2.47914 5.98593,-4.89384 0.96921,-0.83507 0.65928,-1.15489 1.18421,-1.82559 0.24948,-0.31871 0.55703,-0.53295 0.73928,-0.83134 0.2377,-0.38894 0.0974,-0.53495 0.41863,-0.95927 0.37525,-0.49563 0.57282,-0.86439 0.74429,-1.44116 0.0973,-0.32722 0.0336,-0.176 0.21622,-0.46139 0.43002,-0.67168 0.0548,-0.67552 0.50361,-1.47818 0.28925,-0.51748 0.64557,-2.35174 0.72045,-2.43262 -0.17052,-0.88692 0.17143,-1.14329 0.19185,-1.70745 0.01,-0.26754 -0.13816,-0.6538 -0.12746,-0.88007 0.0129,-0.28287 0.15097,-0.52359 0.14488,-0.80441 -0.008,-0.33263 -0.13721,-0.53763 -0.16919,-0.88341 -0.0409,-0.43893 0.12538,-0.48247 0.12085,-0.87261 l -0.19046,-0.78917 c -0.82756,-2.45877 0.0215,-1.79868 -1.72371,-4.7707 -0.67547,-1.15049 -1.7234,-2.81313 -2.60782,-3.74199 -0.45271,-0.47539 -1.12683,-0.80113 -2.09989,-1.6076 -0.43818,-0.36294 -0.3219,-0.26695 -0.77417,-0.36666 -0.66602,-0.1475 -0.6606,-0.50868 -1.51091,-0.68494 l -1.64355,-0.45118 c -1.31572,-0.3364 -3.17975,-0.0753 -3.40779,-0.0969 -0.76936,-0.0736 -0.85489,0.0807 -1.84376,0.59319 -0.83588,0.43287 -3.06318,1.66026 -3.47911,2.52606 -0.13571,0.28256 -0.0755,0.49027 -0.22846,0.77462 -0.23458,0.43592 -0.32012,0.25273 -0.36593,0.77247 -0.11407,1.29616 -0.39552,0.65856 -0.10756,1.66061 0.43471,1.51142 0.59778,1.65863 1.62849,2.43747 0.47936,0.3617 0.24486,0.3631 0.80762,0.29456 0.89196,-0.1087 1.92029,0.42486 2.72512,0.87895 l 0.13087,0.0783 c 0.87587,0.61157 0.80628,1.40443 0.8414,2.04862 0.0414,0.76048 0.424,0.91476 0.12174,1.68689 -0.2457,0.62753 -0.10847,1.08567 -0.49317,1.61829 -0.9634,1.33394 -0.79836,1.67479 -2.59392,2.81147 -2.12184,1.34323 -1.68723,1.15238 -3.71505,1.35154 -1.07822,0.10564 -0.19678,0.2688 -1.6892,0.09 -0.86696,-0.10386 -0.89637,0.33872 -1.75391,-0.3769 -0.63407,0.15725 -0.7837,-0.25179 -1.41727,-0.33168 -0.56984,-0.0723 -2.06447,-0.76624 -2.5043,-1.12207 -0.58383,-0.47222 -1.20395,-0.50777 -1.82904,-1.25224 -1.27559,-1.51932 -2.45538,-2.15748 -3.37368,-4.04656 -0.42762,-0.87917 -0.69723,-1.57073 -0.93598,-2.42856 -0.22046,-0.79231 -0.66479,-1.54613 -0.64798,-2.35692 l 0.005,-0.43746 c -0.0763,-0.62358 -0.38704,-1.15178 -0.29321,-1.75872 0.1074,-0.69394 0.17956,-0.22986 -0.005,-1.03613 -0.0967,-0.4241 -0.069,-0.72884 0.0973,-1.09591 0.12815,-0.28271 0.0813,-0.22187 0.0197,-0.54894 -0.0697,-0.37158 0.007,-0.68231 0.0872,-1.00575 0.0489,-0.198 0.0238,-0.36838 0.0345,-0.58839 0.0205,-0.43125 0.18206,-0.66942 0.25143,-1.01395 0.12482,-0.62162 0.27344,-1.33558 0.57524,-2.00945 0.37317,-0.83242 0.23362,-1.12887 0.80145,-2.01443 0.28578,-0.44615 0.31457,-0.58939 0.48353,-0.95567 0.16599,-0.35972 0.41251,-0.54094 0.62075,-0.92576 0.99358,-1.83447 0.64807,-0.91181 1.31509,-1.90167 0.57866,-0.85934 0.78638,-1.21066 1.66311,-1.86877 1.22727,-0.92122 2.02478,-2.58923 5.27007,-4.11168 l 4.78938,-1.93208 3.33868,-0.61965 c 1.01086,-0.0401 1.50272,-0.3589 2.26619,-0.2432 0.5115,0.0773 0.5947,-0.0325 1.07243,-0.0522 0.44201,-0.0184 0.70705,0.14459 1.55893,0.11447 0.93937,-0.0333 1.77179,0.20274 2.67223,0.30692 l 1.02875,0.27675 c 0.54507,0.2742 0.42855,-0.18556 1.12014,0.0658 l 4.01481,1.34154 c 0.4452,0.1529 0.62233,0.4219 0.94533,0.48636 0.51206,0.10191 0.46056,0.0119 0.99194,0.32115 0.42939,0.2498 0.52956,0.33643 0.94061,0.5218 0.63538,0.28626 2.48647,1.39209 2.91677,1.80548 0.76617,0.73647 1.25826,0.81533 1.88544,1.43981 0.28813,0.28731 0.54181,0.5919 0.85527,0.88457 0.10502,0.098 0.30751,0.28445 0.43978,0.38038 0.80853,0.586 1.58417,1.44036 2.20034,2.36542 1.08529,1.62897 2.18511,3.00998 3.21633,4.79231 0.76244,1.31754 2.0914,3.61472 2.34745,4.86443 0.22897,1.11705 0.95626,2.33806 0.98987,3.41879 0.0116,0.36307 0.14927,0.85896 0.2356,1.20482 0.45828,1.83474 0.15379,0.72033 0.30231,2.18338 0.0376,0.36784 0.18707,0.7147 0.22746,1.12216 0.0389,0.39174 -0.0354,0.74369 0.008,1.13784 0.0513,0.46421 0.16931,0.64091 0.11234,1.09349 -0.0725,0.57719 -0.19698,0.3749 0.0191,1.09215 0.19166,0.63537 -0.0605,0.97076 -0.0248,1.57776 l -0.003,0.59595 c -0.12159,0.5342 -0.22293,0.36507 -0.1683,1.03927 0.0444,0.54928 -0.091,0.75784 -0.1184,1.26571 -0.0177,0.32585 0.0345,-0.0406 -0.009,0.29318 l -0.96506,4.48571 c -0.15581,0.59588 -0.4714,1.18193 -0.58405,1.77035 l -0.19324,0.69612 c -0.0116,0.022 -0.0287,0.048 -0.0404,0.0704 -0.0118,0.0226 -0.0284,0.0485 -0.0397,0.0715 -0.0145,0.0292 -0.0557,0.11598 -0.0676,0.14511 l -0.94139,2.50119 c -0.16894,0.34939 -0.46921,0.56487 -0.65745,0.92476 -0.1659,0.3169 -0.41685,1.02764 -0.6954,1.42196 -0.34947,0.49425 -0.15719,0.0559 -0.26717,0.49566 -0.20223,0.80899 0.10258,0.24477 -0.61277,0.98708 -0.37508,0.38903 -0.34861,0.54209 -0.5576,0.93657 -0.38666,0.73037 -1.15382,1.16255 -1.52694,1.80265 -0.45467,0.77972 -0.85089,1.17506 -1.44523,1.86645 l -4.25594,4.41467 c -1.58354,1.50859 -5.41337,3.82719 -7.31481,4.84418 -2.99059,1.59982 -2.57297,0.99991 -4.76094,1.93307 -1.00244,0.42775 -1.47116,0.73829 -2.42096,0.83717 -0.84898,0.0882 -1.63359,0.65234 -2.39594,0.77183 -0.99729,0.15606 -0.0991,-0.38626 -2.24522,0.43479 -0.5041,0.19297 -0.63412,0.13868 -1.06208,0.0814 -0.5497,-0.073 -0.63138,0.089 -1.20225,0.20711 -0.47055,0.0975 -0.64132,-0.0515 -1.04665,-0.0321 -0.36435,0.0177 -0.77237,0.1564 -1.11484,0.20069 -0.45779,0.059 -0.6522,-0.0497 -1.05159,-0.034 -0.40743,0.0162 -0.79648,0.16617 -1.192,0.1676 -0.45163,0.002 -0.53268,-0.13525 -1.0633,-0.048 -0.9587,0.1575 -0.90079,-0.12246 -1.55908,-0.1106 -0.42906,0.008 -0.64377,0.10127 -1.04233,-0.0217 -0.61024,-0.18878 -1.03275,-0.0297 -1.6411,-0.16953 -1.34919,-0.3105 -2.87168,-0.30872 -4.17369,-0.66537 -1.36549,-0.37371 -2.73609,-0.66877 -4.07024,-1.13547 l -0.96678,-0.42303 c -0.4931,-0.18849 -0.47726,0.0245 -0.98085,-0.27961 -0.36325,-0.21913 -0.65087,-0.24579 -1.06567,-0.39328 -0.33593,-0.11925 -0.59829,-0.32808 -0.95575,-0.46932 -0.65038,-0.25702 -1.38489,-0.78004 -1.9117,-0.96337 -0.87672,-0.30459 -0.98164,-0.61633 -1.48242,-0.8138 -0.2124,-0.0835 -0.28437,-0.0479 -0.4985,-0.1409 -0.35716,-0.15536 -0.64233,-0.49433 -0.98196,-0.67404 -0.31555,-0.16695 -0.63515,-0.18236 -0.95965,-0.39548 -0.34809,-0.22889 -0.58703,-0.5639 -0.96272,-0.80961 -0.18216,-0.11893 -0.30349,-0.20004 -0.47582,-0.28216 l -1.34643,-0.95143 c -0.29126,-0.25432 -0.17969,-0.19403 -0.46872,-0.37539 -0.59014,-0.37038 -0.95491,-0.7477 -1.4202,-1.25295 -0.70183,-0.76295 -1.09313,-0.84879 -1.78071,-1.46461 -0.61682,-0.55244 -1.1772,-1.31554 -1.77492,-1.84688 -0.28098,-0.25019 -0.58594,-0.50115 -0.8832,-0.77353 -0.75214,-0.69018 -3.4129,-4.34928 -4.15855,-5.34663 -0.55969,-0.74902 -1.13153,-1.75023 -1.63104,-2.55986 -1.01932,-1.65132 -1.75869,-3.30811 -2.60026,-4.93313 -0.49678,-0.95952 -0.76345,-1.46929 -1.06683,-2.39501 -0.24036,-0.7331 -0.39186,-1.53595 -0.78237,-2.37639 -0.63525,-1.36785 -0.53905,-2.16392 -1.03989,-3.44883 -0.4483,-1.15074 -0.21846,-1.38294 -0.47231,-2.31822 -0.74173,-2.73045 -0.22385,-1.3926 -0.34202,-2.2738 -0.0651,-0.48627 -0.35254,-0.82575 -0.36863,-1.23993 -0.0165,-0.41813 0.16763,-0.51554 0.0589,-1.05772 -0.3502,-1.74642 -0.0842,-0.79654 -0.13262,-2.13971 -0.0209,-0.58556 -0.12482,-0.59267 -0.031,-1.15233 0.12619,-0.75311 -0.11984,-1.30938 0.0269,-2.11168 l 0.0522,-1.0553 c 0.0297,-0.22404 0.0909,-0.31518 0.11673,-0.50551 0.0389,-0.28497 -0.12406,-0.67656 -0.11818,-1.01025 l 0.0269,-0.44806 c 1.9e-4,-0.0232 -0.002,-0.0546 -0.002,-0.0776 l 0.0828,-1.20418 c 0.004,-0.0218 0.0117,-0.0517 0.0155,-0.0732 l 0.055,-0.43562 c 0.0135,-0.1764 0.0304,-0.30097 0.047,-0.52535 l 0.15259,-1.11114 c 0.071,-0.30744 0.0146,-0.67403 0.10433,-1.04778 0.12872,-0.53494 0.21691,-0.33863 0.21933,-0.98889 0.002,-0.60554 0.43494,-2.60438 0.67705,-3.15519 0.24607,-0.55958 0.10398,-0.46902 0.19305,-0.99304 0.0659,-0.38782 0.24595,-0.53743 0.30784,-0.98591 l 1.49513,-4.53741 c 0.10061,-0.27181 0.18329,-0.35664 0.27825,-0.55118 0.13483,-0.27607 0.18393,-0.67852 0.30728,-0.98469 0.13171,-0.32614 0.40368,-0.6665 0.55351,-0.95154 0.0665,-0.12678 0.17564,-0.31674 0.22127,-0.46167 l 0.0521,-0.21718 c 0.18283,-0.5414 0.4487,-0.77455 0.62006,-1.30313 0.12339,-0.37959 0.35904,-0.61616 0.62576,-0.95325 0.25977,-0.3286 0.24094,-0.65288 0.4072,-1.01936 0.15249,-0.3374 0.43388,-0.65801 0.62223,-0.93545 0.39189,-0.57678 0.19213,-0.53944 0.4692,-1.01875 0.17824,-0.30778 0.50044,-0.58085 0.68517,-0.91339 0.23608,-0.42415 0.0319,-0.47525 0.45097,-0.95761 0.30032,-0.34521 0.51034,-0.5646 0.79442,-0.89127 0.38663,-0.44537 0.19186,-0.61005 1.38401,-1.8846 0.30497,-0.32571 0.38924,-0.55622 0.65341,-0.91259 0.70501,-0.95115 1.05606,-1.15458 1.5821,-1.81887 0.63823,-0.80637 0.65845,-1.06734 1.65949,-1.79563 0.794,-0.57734 1.15967,-1.19433 1.67773,-1.77966 1.09004,-1.23137 3.30404,-2.50706 4.44538,-3.85751 0.93933,-1.11149 2.32092,-1.79758 3.23344,-2.90892 0.0173,-0.0209 0.0363,-0.0432 0.0535,-0.0643 l 0.10682,-0.12758 c 0.017,-0.0206 0.036,-0.0427 0.0527,-0.0635 l 0.2625,-0.32144 c 0.17263,-0.20032 0.22078,-0.25861 0.39652,-0.44403 0.90102,-0.95051 0.72532,-0.81257 1.44673,-1.78346 0.44763,-0.60245 1.16513,-1.15141 1.59233,-1.83313 0.66325,-1.05817 0.1775,-0.60339 1.42497,-1.81816 0.87234,-0.84979 0.15243,-0.15879 0.53762,-0.97722 0.1558,-0.33035 0.57816,-0.6055 0.81133,-0.90457 0.31298,-0.40108 0.28554,-0.63894 0.50232,-1.00668 0.19643,-0.33316 0.46349,-0.55761 0.71261,-0.90979 0.63715,-0.9001 0.15101,-0.81366 1.25916,-1.93856 0.41632,-0.42286 0.3027,-0.94798 0.69947,-1.424389 0.40005,-0.47991 0.4191,-0.96049 0.83979,-1.47777 0.26789,-0.32917 0.26938,-0.99181 0.87373,-1.91273 0.22548,-0.34321 0.14495,-0.56203 0.33652,-0.97221 0.17658,-0.37846 0.42833,-0.60626 0.56537,-1.0047 l 1.31241,-3.41281 c 0.30082,-1.03325 0.7724,-1.99266 0.98411,-3.03772 0.0896,-0.44178 0.0349,-0.17744 0.25536,-0.51262 l 0.47744,-2.05026 c 0.0384,-0.41776 0.20843,-0.61401 0.28734,-1.00993 l 0.6777,-2.51358 c 0.006,-0.0217 0.0151,-0.0518 0.0214,-0.0732 0.14026,-0.47713 0.087,-1.0426 0.16259,-1.55157 l 0.44247,-2.62827 c 0.004,-0.0208 0.0106,-0.051 0.0144,-0.072 l 0.23672,-2.55438 c 0.16634,-0.48698 0.0383,-0.59796 0.0421,-1.09845 0.003,-0.41207 0.1533,-0.64488 0.13387,-1.02378 -0.0251,-0.49303 -0.0954,-0.77976 0.0401,-1.30997 0.005,-0.0205 0.0166,-0.05 0.0212,-0.07029 l 0.0162,-2.02796 c -0.007,-0.306718 0.0667,-1.337928 -0.12691,-2.070067 -0.2185,-0.827342 -0.15744,-1.493741 -0.29866,-2.315528 -0.0617,-0.359152 -0.22031,-0.747603 -0.16593,-1.095296 0.1292,-0.826419 -0.40849,-1.617328 -0.31193,-2.199633 0.0745,-0.451399 0.20617,-0.621575 0.024,-1.131707 -0.36755,-1.031262 -0.10075,-1.44634 -0.32063,-2.199029 -0.12212,-0.418139 -0.30086,-0.773218 -0.41582,-1.171245 -0.12973,-0.450856 -0.01,-0.736361 -0.10384,-1.166094 -0.16073,-0.734482 -0.66123,-1.586589 -0.73513,-2.294791 -0.10404,-1.001084 -0.34301,-1.451222 -0.77357,-2.405993 -0.72331,-1.603604 -0.0318,-1.40881 -1.87861,-4.791832 -0.87762,-1.607476 -1.13425,-2.87416 -2.07068,-4.781477 -0.75457,-1.537147 -2.1717,-3.572792 -3.12311,-5.071212 -1.68053,-2.646246 -1.942,-2.409666 -3.42965,-4.296332 -0.80038,-1.014924 -1.59423,-2.19875 -2.49437,-3.044909 -0.37811,-0.3551 -0.63798,-0.403785 -0.96918,-0.703994 -0.5757,-0.520973 -1.11053,-1.357781 -1.67851,-1.973893 -0.57296,-0.62181 -0.45393,-0.310047 -0.93427,-0.656826 -0.6176,-0.446008 -1.17593,-1.310217 -1.81991,-1.657861 -1.15221,-0.622217 -0.96206,-0.798902 -1.80075,-1.435406 -0.68697,-0.521281 -0.87932,-0.416046 -1.89563,-1.301481 -0.31186,-0.272162 -0.58661,-0.325692 -0.95439,-0.503838 -0.43447,-0.210391 -0.49124,-0.280531 -0.91294,-0.583449 -0.75455,-0.542279 -0.71218,-0.149285 -1.9219,-1.176996 -0.58437,-0.496134 -0.43112,-0.09709 -0.977,-0.474541 -0.41008,-0.284422 -0.47337,-0.413146 -0.94238,-0.554291 -1.12718,-0.33978 -0.68505,-0.388933 -1.99557,-0.867475 -0.34572,-0.126153 -0.59803,-0.394532 -0.93789,-0.572449 -0.33561,-0.175584 -0.6478,-0.188669 -0.98525,-0.337467 -0.98451,-0.432963 -2.00026,-0.693569 -3.00584,-1.11586 l -1.48927,-0.482155 c -0.33414,-0.110269 -0.24955,-0.163085 -0.55207,-0.255573 l -8.31475,-1.872093 c -0.58726,-0.0278 -0.96664,-0.207978 -1.55707,-0.189731 -0.19272,0.006 -0.406,0.05718 -0.55843,0.05599 -0.38415,-0.003 -0.49825,-0.156413 -1.03199,-0.127622 -0.70121,0.03762 -0.54198,-0.05669 -1.10313,-0.110954 -0.42014,-0.0408 -0.65953,0.128228 -1.07226,0.04885 -0.50894,-0.09799 -0.42452,-0.215801 -1.04395,-0.140221 -1.13451,0.138295 -0.92883,-0.174621 -2.19384,0.03296 -0.30916,0.05073 -0.67732,-0.03535 -1.06648,-0.02552 -0.43572,0.01122 -0.65637,0.153246 -1.09821,0.145175 l -2.21995,0.116324 c -0.43384,0.01906 -0.53058,-0.09193 -1.04969,0.0089 -0.37703,0.07327 -0.75259,0.237067 -1.14315,0.269522 -0.36284,0.02978 -0.62443,-0.09939 -1.05776,0.04577 -1.52148,0.507879 -0.80575,0.459639 -2.36367,0.559414 -0.81307,0.05192 -1.59342,0.764781 -2.36794,0.913898 -0.58397,0.11269 -0.335,-0.257856 -1.14986,0.0282 -0.78787,0.27663 -1.51497,0.735226 -2.34586,0.997559 -0.55005,0.173698 -0.64607,0.117933 -1.1207,0.243709 -1.30836,0.346789 -2.552051,1.03603 -3.760227,1.743707 -0.590369,0.345766 -0.724105,0.31912 -1.162354,0.520229 -1.81623,0.833323 -4.752238,2.377112 -6.167409,3.73123 -1.364041,1.305243 -3.974999,2.752206 -5.139528,4.198335 -0.312816,0.388566 -0.236928,0.505327 -0.652885,0.893109 -0.552007,0.514788 -1.785115,1.1228 -2.101565,1.772457 l -0.02115,0.04497 -0.70859,-0.651653 -6.503442,-2.626957 c -2.686235,2.887593 -5.016092,6.085251 -6.933803,9.525368 l 5.680741,6.792908 c -0.735921,1.584811 -1.377716,3.216908 -1.903336,4.890653 l -8.759752,1.22854 c -0.876261,3.791324 -1.297251,7.716714 -1.235183,11.721575 l 8.306348,3.038716 c 0.120484,1.285219 0.292187,2.572232 0.534187,3.860884 0.08528,0.444951 0.185403,0.878256 0.289973,1.320058 l -6.983354,5.452031 c 1.176777,3.83149 2.777622,7.4426 4.765047,10.76978 l 8.172937,-1.4235 c 0.462578,0.72736 0.850538,1.31696 1.058705,1.61837 0.490654,0.70919 1.054784,1.52869 1.597012,2.32699 0.281942,0.41488 0.553885,0.72191 0.820259,0.98067 l -2.934581,7.25837 c 2.883214,2.69175 6.08952,5.01882 9.52362,6.940619 l 5.693062,-4.757189 c 0.226005,0.16876 0.339346,0.26873 0.716264,0.36937 l 1.947992,0.76184 c 1.771881,0.8366 1.19315,0.33977 2.028444,0.72437 l 1.485453,0.42418 1.047015,7.458979 c 3.79014,0.8737 7.71241,1.30196 11.71156,1.2386 l 2.78166,-7.57681 0.0605,-0.0148 c 0.48326,-0.11226 0.63506,0.0683 1.08158,-0.0317 0.81982,-0.18367 1.43863,-0.485619 2.32093,-0.572119 0.75498,-0.0739 1.41777,-0.43086 2.12254,-0.74902 l 5.30657,6.802549 c 3.84103,-1.17681 7.44763,-2.77888 10.77965,-4.76419 l -1.51966,-8.735629 -0.31171,-2.36514 c 0.47423,-0.45188 0.80966,-0.77557 1.21442,-1.39392 0.3295,-0.50308 0.80657,-0.83308 1.18952,-1.31021 0.43236,-0.53875 0.18109,-0.70295 0.80004,-1.40952 0.41925,-0.47869 0.55422,-0.4194 0.68926,-1.01268 0.12634,-0.55463 0.28846,-0.46619 0.61982,-0.92116 0.24976,-0.34236 0.22773,-0.69872 0.35857,-1.04957 l 1.1438,-2.01124 1.32579,-4.2646 c 0.50647,-1.29849 0.11832,-0.45124 0.34953,-1.90098 0.0768,-0.47969 0.19855,-0.8176 0.30014,-1.29597 l 0.1884,-2.681033 c -0.15341,-0.954875 0.0714,-0.172551 -0.0291,-1.314824 l -0.24154,-4.063687 c -0.0918,-0.495784 -0.30247,-0.682467 -0.38026,-1.388537 -0.2446,-2.223132 -0.66864,-1.979116 -1.39434,-4.425721 -0.5901,-1.989391 -2.66828,-5.480995 -4.44169,-7.05842 -0.98326,-0.874553 -1.54928,-1.742664 -2.20704,-2.306684 l -1.18575,-0.778412 c -0.37262,-0.268668 -0.70937,-0.673982 -1.08163,-0.883747 -0.40156,-0.226544 -0.76169,-0.373357 -1.21017,-0.69204 -0.25147,-0.178503 -0.3301,-0.263088 -0.58996,-0.399586 l -1.83721,-0.927112 c -1.22607,-0.341111 -0.65008,-0.285941 -1.18568,-0.482185 -0.26211,-0.0959 -0.38664,-0.03196 -0.65817,-0.09283 -0.64875,-0.145026 -0.11345,-0.231785 -1.27394,-0.403726 -0.29746,-0.04398 -0.36886,-0.128824 -0.63775,-0.220011 -0.43657,-0.147835 -0.91252,-0.003 -1.2184,-0.25724 -1.12324,0.365186 -1.05367,-0.05411 -1.83078,-0.03624 -0.33341,0.0079 -0.62138,0.09054 -0.92148,0.05371 -0.33572,-0.0416 -0.5373,-0.07366 -0.90437,-0.07138 l -2.2301,0.124327 c -0.25114,0.03405 -0.26863,0.05659 -0.49918,0.131107 -0.34088,0.110089 -0.60933,0.189264 -0.96144,0.21591 -0.98413,0.07476 -0.83738,0.0271 -1.82213,0.415312 -2.42965,0.958861 -3.73086,0.953946 -5.84289,3.014053 -0.52403,0.510936 -0.8998,0.96864 -1.39099,1.444173 -1.69686,1.643545 -1.12819,1.639762 -1.73104,2.232127 -0.54897,0.539122 -0.66492,1.009741 -0.9548,1.621018 -0.12308,0.259683 -0.30615,0.565649 -0.4302,0.811859 -0.55107,1.093403 -0.78083,2.210602 -0.88278,3.383857 -0.0623,0.719392 -0.27171,0.884914 -0.10299,1.817607 0.34097,1.886898 -0.30376,0.583638 0.78095,3.766671 0.28595,0.838808 0.23544,1.129145 0.89252,2.062025 0.57673,0.819055 2.27351,2.438385 2.98572,2.748394 l 1.58496,0.692013 c 0.43079,0.161546 1.28141,0.109708 1.78837,0.193414 1.0153,0.167443 3.23203,-1.101 3.73997,-2.11463 0.95746,-1.910398 -0.64558,-2.436382 -0.56499,-3.721243 0.0203,-0.321469 0.0747,-0.470089 0.0702,-0.824468 -0.0118,-0.97072 0.364,-1.736469 1.22624,-2.431036 1.62129,-1.306045 2.13702,-1.278681 3.78771,-1.278964 1.4724,6e-5 0.70612,0.109261 1.75556,0.270159 0.52712,0.08081 1.19239,0.395026 1.67087,0.614017 0.44779,0.204963 2.63134,2.215842 2.98466,2.706213 1.1926,1.655726 1.05216,2.393226 1.66862,3.957732 0.39244,0.996133 0.25448,1.0192 0.2741,1.834881 0.0217,0.909083 0.17709,0.833552 0.0278,1.836989 -0.0473,0.317544 0.0581,0.462888 -0.017,0.83265 -0.26129,1.287768 -0.52488,3.060588 -1.23796,4.216748 -0.3689,0.59803 -0.43194,1.0851 -0.89044,1.63518 -0.61975,0.74324 -0.55484,0.92715 -0.98295,1.51392 l -2.87351,2.90434 c -0.63808,0.49325 -1.26475,0.90902 -2.00065,1.35163 -1.41918,0.85349 -2.54124,0.95817 -4.02304,1.60463 -0.94419,0.41221 -0.98174,0.36086 -1.83865,0.42613 -0.67094,0.0511 -2.11446,0.49283 -3.69018,0.46109 -0.28212,-0.006 -0.60633,-0.0903 -0.8841,-0.10267 -0.37708,-0.0164 -0.58289,0.0666 -0.92222,0.0241 -0.44008,-0.0545 -0.40293,-0.15179 -0.80336,-0.15168 -1.09254,-3.4e-4 -3.27319,-0.47109 -4.35548,-0.86259 -0.90111,-0.32569 -2.5388,-0.90005 -3.247102,-1.39754 -0.409941,-0.28783 -0.382458,-0.36597 -0.806918,-0.50559 -0.585939,-0.19251 -0.996832,-0.68752 -1.503681,-1.0453 -0.325668,-0.22967 -0.46874,-0.17324 -0.824118,-0.3689 -0.529692,-0.29191 -0.958225,-1.00298 -1.514008,-1.39084 -1.763587,-1.22948 -1.605555,-1.76434 -2.874274,-3.09468 -0.730545,-0.76583 -0.669415,-0.4906 -1.413042,-1.6128 -0.42344,-0.63882 -0.963698,-1.46005 -1.304012,-2.13673 -0.344157,-0.68439 -0.456768,-1.257424 -0.766681,-1.902185 -0.343895,-0.714008 -0.701625,-1.291444 -0.998388,-2.035496 -0.272936,-0.68409 -0.244463,-1.225183 -0.421482,-1.853406 -0.185946,-0.659795 -0.568254,-1.304028 -0.556572,-1.956585 0.02331,-1.2795 -0.427572,-1.177685 -0.322384,-2.734902 0.03984,-0.588969 -0.251641,-1.157581 -0.155098,-1.789156 0.08806,-0.576937 -0.131613,-1.233782 -0.03507,-1.834948 l 0.176333,-2.63085 c 0.05011,-1.325834 1.140724,-5.473279 1.738837,-6.736111 0.509723,-1.076466 0.772376,-2.324951 1.50068,-3.285937 0.415935,-0.548414 0.250093,-0.841355 0.888316,-1.630638 0.546119,-0.675322 0.266771,-0.85574 0.928621,-1.548098 0.875695,-0.91635 0.506119,-0.937268 0.97684,-1.56437 0.350887,-0.46777 0.924794,-0.93554 1.342232,-1.443369 0.62701,-0.763163 0.312779,-0.778462 1.303632,-1.510968 0.574018,-0.424365 1.054412,-0.910443 1.571767,-1.401782 0.423313,-0.401938 1.079474,-1.129559 1.564126,-1.475823 2.447596,-1.748531 5.333056,-3.68315 8.146936,-4.599539 1.43008,-0.465656 2.58679,-1.32502 3.9199,-1.476678 0.74776,-0.08478 1.20236,-0.357998 1.87013,-0.500621 0.70996,-0.151638 0.96028,0.107668 1.82799,-0.181282 0.99715,-0.331491 1.09946,-0.0689 1.86413,-0.209557 0.36651,-0.06741 0.65015,-0.178066 0.96851,-0.230167 0.81906,-0.133579 0.75011,0.143089 1.78628,-0.109196 0.60649,-0.147747 1.22444,0.01707 1.83792,-0.02651 l 3.54156,0.172288 c 0.3349,0.041 0.55367,0.17048 0.8767,0.189949 0.96285,0.05858 1.12339,0.21326 1.68777,0.248564 0.85655,0.05322 1.61392,0.536342 2.50501,0.605588 0.54835,0.04289 0.7636,0.30543 1.28129,0.406248 l 1.42882,0.398324 c 0.22961,0.04388 0.0232,-0.02075 0.23487,0.07515 0.30781,0.139099 0.45252,0.338202 0.79346,0.369762 l 1.09025,0.274605 c 0.89762,0.25439 1.76013,0.741361 2.65314,1.028782 0.48244,0.15558 0.72914,0.528261 1.19887,0.698384 0.87947,0.318297 1.12964,0.816129 1.95555,1.116316 0.71695,0.260566 0.92936,0.724346 1.59494,0.973187 0.72465,0.270733 0.90074,0.775216 1.5585,1.201944 0.6424,0.416741 0.9486,0.395068 1.54753,1.043883 1.24865,1.353284 1.76207,1.291721 2.9605,2.797437 0.90391,1.135199 2.00326,1.960035 2.86513,3.051591 1.16788,1.478573 5.67875,8.346833 6.22833,10.256285 0.22095,0.766459 0.14897,1.118639 0.51898,1.926607 1.03017,2.249348 0.55055,0.926158 0.9987,2.898331 0.20548,0.904392 0.74866,1.900934 0.74914,2.82079 2.7e-4,0.850432 0.31178,1.184007 0.37746,1.90739 0.0993,1.098118 -0.10608,0.46323 0.21725,1.842721 0.0787,0.335214 0.0614,1.567708 -0.0694,1.914679 l 0.0685,0.99984 c -0.0823,1.065886 0.37347,2.438787 0.26573,3.488366 -0.0387,0.375861 -0.1459,0.337664 -0.12673,0.734853 0.0462,0.9727 0.0868,0.51791 -0.0671,1.49588 l -0.10841,2.2675 c 0.009,0.30993 -0.0372,0.43431 -0.13602,0.7134 -0.16045,0.4534 -0.17132,1.01524 -0.25557,1.46896 -0.1276,0.6873 0.007,0.69584 -0.27905,1.44832 -0.28208,0.74145 -0.17538,1.66128 -0.40136,2.41904 l -0.0965,0.52151 c -0.0453,0.27615 -0.0623,0.4186 -0.19454,0.69012 -0.3024,0.62244 -0.19912,0.96156 -0.42871,1.42124 -0.19688,0.39427 -0.20696,0.72153 -0.36911,1.13466 l -0.5235,1.34338 c -0.10738,0.45144 -0.36539,0.5849 -0.51324,1.0155 -0.098,0.28494 -0.006,0.32117 -0.16521,0.71363 l -0.52086,1.03047 c -0.002,0.005 -0.0904,0.30136 -0.10707,0.34614 -0.24996,0.6681 -0.59765,0.65348 -0.81877,1.25927 -0.32863,0.89951 -0.17325,0.51742 -0.78024,1.33622 -0.36929,0.49831 -0.22714,0.83837 -0.65011,1.36436 -0.15976,0.19907 -0.36765,0.45713 -0.48158,0.65431 -0.37977,0.65721 -0.0659,0.50206 -0.75405,1.33808 -0.58979,0.71668 -0.54605,1.15472 -0.69065,1.3472 -0.2906,0.38749 -0.94134,0.84234 -1.20909,1.25576 -0.25067,0.3874 -0.0708,0.33525 -0.33253,0.67276 -0.25794,0.33251 -1.00429,0.90334 -1.33276,1.23036 -0.18319,0.182389 -0.43299,0.409319 -0.59394,0.631479 -0.13725,0.18974 -0.23586,0.41648 -0.43293,0.65957 -0.38502,0.47461 -0.83005,0.77786 -1.29155,1.22395 -0.23296,0.22545 -0.3689,0.35574 -0.64242,0.60575 -0.65739,0.60101 -0.0952,0.38745 -1.80754,1.86902 -1.0451,0.90416 -5.08696,3.78993 -6.41393,4.61855 -1.83808,1.1478 -6.62464,4.0521 -8.59521,4.5295 -1.73266,0.42015 -1.88411,0.68697 -3.32063,1.17848 -0.30168,0.10308 -0.54706,0.19723 -0.79665,0.1927 -0.41668,-0.008 -0.2053,-0.16183 -0.75665,0.0233 -0.57757,0.19382 -1.06881,0.43332 -1.67518,0.63887 -0.50378,0.17041 -0.84555,-0.014 -1.54538,0.16362 -0.62409,0.15848 -0.98048,0.40521 -1.63823,0.47001 -1.31224,0.12927 -2.0084,0.50651 -3.13174,0.38317 -0.64616,-0.0705 -0.96353,0.19592 -1.56462,0.18443 l -1.53175,0.0669 c -0.69657,-0.006 -0.6645,-0.12054 -1.55585,0.11121 l -2.23093,0.11752 c -0.32676,-0.004 -0.4184,-0.048 -0.74102,-0.0786 -0.5348,-0.0504 -0.93432,0.0643 -1.50807,-0.0376 -0.54488,-0.0971 -0.99134,0.0275 -1.54138,0.019 -0.93341,-0.0151 -2.01625,-0.23684 -2.91968,-0.45776 -0.47851,-0.11707 -1.03836,-0.11955 -1.45325,-0.26645 l -1.444662,-0.35417 c -0.501755,-0.1112 -0.944644,-0.0837 -1.463026,-0.23046 l -1.072855,-0.28286 c -0.02115,-0.007 -0.04966,-0.0194 -0.07111,-0.0259 -0.02167,-0.007 -0.05071,-0.0179 -0.07267,-0.0239 -0.01675,-0.004 -0.193042,-0.0381 -0.226176,-0.0426 -1.542198,-0.21052 -2.829584,-0.85785 -4.256304,-1.29828 -0.35467,-0.10955 -0.378951,-0.19374 -0.690963,-0.30766 l -7.028719,-2.16912 c -0.455613,-0.17867 -1.603165,-0.31847 -2.169052,-0.47701 -0.262522,-0.0735 -0.43895,-0.17655 -0.702752,-0.23235 l -1.439925,-0.29464 c -0.0409,-0.003 -0.251293,0.004 -0.377992,-0.003 -1.075325,-0.057 -2.034046,-0.39417 -3.101558,-0.41765 l -0.953222,-0.14764 c -0.373088,-0.0223 -0.420573,0.078 -0.782175,0.0689 -0.719252,-0.0181 -1.469499,-0.28229 -2.204199,-0.30769 -0.479296,-0.0169 -0.533681,0.12157 -1.542568,0.0642 l -1.51473,-0.0261 c -0.104432,-0.007 -0.27113,0.0104 -0.381428,0.0123 l -1.892714,-0.0348 c -0.541047,-0.013 -1.057374,0.2423 -1.568609,0.18101 -0.840342,-0.10092 -1.464624,0.27225 -2.239999,0.14544 -0.76499,-0.12539 -1.554809,0.198 -2.329896,0.21958 -0.589892,0.0166 -1.034878,0.20944 -1.592267,0.32657 -0.551868,0.11574 -0.946213,-0.0263 -1.557559,0.1676 -0.25321,0.08 -0.518064,0.20527 -0.821439,0.24253 l -1.525652,0.11952 c -0.307465,0.0909 -0.525232,0.21623 -0.836897,0.30933 -0.378727,0.1128 -0.491895,0.12945 -0.803202,0.1814 -0.372949,0.0619 -0.0685,0.0251 -0.400628,0.0429 -0.898837,0.0479 -1.908826,0.70751 -2.882579,0.97203 -1.45842,0.39621 -0.802855,0.12844 -2.490429,0.83391 l -1.647148,0.60494 c -1.849458,0.40364 -3.403363,1.58487 -5.145074,2.4159 -2.326451,1.11004 -4.795753,2.5028 -6.811145,4.03097 -0.969037,0.73452 -2.229535,1.62879 -3.239246,2.28784 -0.808454,0.52739 -2.608362,1.75889 -3.10391,2.34881 -0.677655,0.80645 -1.636943,1.69273 -2.485992,2.45269 -0.489293,0.4385 -0.623479,0.79045 -1.076526,1.27697 -0.405562,0.4354 -0.874652,0.81777 -1.297916,1.22974 -0.241842,0.2357 -0.379422,0.39287 -0.545565,0.62861 -1.35516,1.92313 -1.387475,1.39091 -2.184611,2.5495 -0.456423,0.66375 -0.282706,0.56592 -0.922139,1.30597 -0.316677,0.36605 -0.485123,0.96416 -0.742096,1.3332 -0.173241,0.24881 -0.355625,0.38856 -0.530117,0.64128 -0.490067,0.71063 -1.342274,1.80805 -1.629853,2.591 -0.255722,0.69651 -0.860903,1.3419 -1.108037,2.02519 -0.131872,0.36409 -0.194069,0.35533 -0.381576,0.67357 -0.26696,0.45333 -0.192481,0.7867 -0.603027,1.37009 -0.685637,0.9742 -0.27519,0.71944 -0.605013,1.38167 l -0.948496,2.06238 c -0.159352,0.29103 -0.326616,0.38863 -0.455817,0.66691 l -2.130694,6.35128 c -0.106407,0.30806 -0.176378,0.42703 -0.23383,0.70022 l -0.02701,0.14627 c -0.0039,0.0212 -0.0099,0.0521 -0.0138,0.0733 -0.006,0.03 -0.02323,0.11653 -0.02978,0.14657 -0.0039,0.0214 -0.01122,0.0516 -0.01608,0.0727 l -0.5066179,2.46293 c -0.04527,0.3584 -0.106318,0.47933 -0.153673,0.72853 -0.07952,0.4178 0.04616,0.85836 -0.110427,1.49818 l -0.209478,0.63212 c 0.141899,0.45262 0.06086,0.80998 -0.01301,1.21576 -0.04954,0.27431 -0.03812,0.26438 -0.04001,0.51706 l -0.331748,2.58072 c -8.94e-4,0.56577 0.144489,0.54433 0.02809,1.15692 -0.07466,0.39429 -0.105255,0.62403 -0.07366,1.03121 0.04477,0.57341 -0.03881,0.59133 -0.04299,1.06421 -0.003,0.3482 0.05471,0.7212 0.08766,1.07766 0.05073,0.55384 -0.0556,0.62995 -0.01251,1.14463 0.03425,0.40986 0.135743,0.69839 0.125389,1.09768 -0.01459,0.5598 -0.153525,0.3872 -9.68e-4,1.05493 0.131573,0.57834 0.106873,0.60533 0.109017,1.09549 l 0.369078,3.26911 c 0.269332,0.91795 0.176636,1.85745 0.289784,2.25166 0.4668359,1.62683 0.3732469,0.68368 0.6036119,2.30353 0.05877,0.41388 0.254272,0.76182 0.446098,1.1849 0.517171,1.1402 0.263952,1.3886 0.545277,2.23125 0.263147,0.78853 0.66035,1.52403 0.969205,2.35588 0.289884,0.78025 0.395764,1.50255 0.745393,2.37291 0.300287,0.7479 0.809198,1.62505 1.194637,2.39364 1.073775,2.14075 6.299106,10.47792 7.787915,11.82425 0.598659,0.54123 1.202192,1.10257 1.742635,1.71229 1.539509,1.73605 1.118411,1.3587 2.682969,2.48643 0.279886,0.20147 0.605847,0.62821 0.847778,0.89496 1.002603,1.10525 0.488579,0.20374 1.816706,1.47152 0.945389,0.90219 1.39229,0.84444 1.830476,1.16179 0.383274,0.27782 0.544959,0.64255 0.953211,0.86735 0.25867,0.14249 0.690393,0.25117 0.958892,0.42511 0.744737,0.48261 0.195002,0.38262 1.863783,1.18824 0.373723,0.18022 0.528032,0.40711 0.922286,0.60937 0.361781,0.1854 0.606869,0.23459 0.958007,0.48821 0.960986,0.69365 0.653629,0.21947 1.900199,1.0043 l 1.999874,0.85967 c 0.350692,0.10076 0.261401,-0.0303 0.516327,0.0533 0.289993,0.095 0.180221,0.15198 0.457773,0.32065 0.303217,0.18366 0.659457,0.14406 0.999228,0.27945 l 1.967133,0.72651 c 0.538426,0.13168 0.412828,0.0251 0.997092,0.26106 0.274257,0.11097 0.517598,0.20104 0.734938,0.27514 l -0.0039,0.0119 0.521162,6.99457 c 3.77795,1.13183 7.676406,1.80647 11.610035,2.00446 l 3.344303,-7.56855 0.430839,0.043 c 0.0141,4e-4 0.212039,-7.4e-4 0.237602,-0.003 l 3.105797,-0.35188 c 0.240333,-0.0133 0.0268,7.5e-4 0.241048,-0.0244 0.540382,-0.0634 0.67548,0.0623 1.054317,0.01 0.172317,-0.0239 0.449989,-0.11192 0.708659,-0.1978 l 4.661291,6.84893 c 3.787978,-0.89116 7.494617,-2.25035 11.058723,-4.07754 l -0.911714,-8.44445 c 1.81897,-1.1062 3.513124,-2.25912 4.575346,-3.09941 l 0.0954,-0.0749 7.551889,3.64498 c 2.915718,-2.75024 5.446197,-5.78341 7.550567,-9.0377 l -4.72245,-6.46802 0.377476,-0.61184 c 0.222535,-0.32224 0.119998,-0.53414 0.381825,-0.9721 0.210756,-0.35252 0.425964,-0.60279 0.584941,-0.93603 0.23806,-0.49882 0.06485,-0.42941 0.419769,-0.96666 0.955379,-1.44451 0.15757,-0.91075 0.928989,-1.91785 0.0361,-0.0471 0.0665,-0.0901 0.0915,-0.12983 l 7.73361,-0.57339 c 1.13864,-3.7765 1.80709,-7.6815 2.01147,-11.61167 l -6.84771,-3.02864 z"
       style="fill:#ffffff;fill-opacity:1;fill-rule:evenodd;stroke:none;stroke-width:0.9927842"
       id="path32" />
  </g>
</svg>
